<svg width="44" height="51" viewBox="0 0 44 51" fill="none" xmlns="http://www.w3.org/2000/svg">
<path d="M12.6133 15.0515V11.1453C12.6133 10.5007 13.1406 9.97339 13.7852 9.97339H17.6914C18.3359 9.97339 18.8633 10.5007 18.8633 11.1453V15.0515C18.8633 15.696 18.3359 16.2234 17.6914 16.2234H13.7852C13.1406 16.2234 12.6133 15.696 12.6133 15.0515ZM26.2852 16.2234H30.1914C30.8359 16.2234 31.3633 15.696 31.3633 15.0515V11.1453C31.3633 10.5007 30.8359 9.97339 30.1914 9.97339H26.2852C25.6406 9.97339 25.1133 10.5007 25.1133 11.1453V15.0515C25.1133 15.696 25.6406 16.2234 26.2852 16.2234ZM13.7852 25.5984H17.6914C18.3359 25.5984 18.8633 25.071 18.8633 24.4265V20.5203C18.8633 19.8757 18.3359 19.3484 17.6914 19.3484H13.7852C13.1406 19.3484 12.6133 19.8757 12.6133 20.5203V24.4265C12.6133 25.071 13.1406 25.5984 13.7852 25.5984ZM26.2852 25.5984H30.1914C30.8359 25.5984 31.3633 25.071 31.3633 24.4265V20.5203C31.3633 19.8757 30.8359 19.3484 30.1914 19.3484H26.2852C25.6406 19.3484 25.1133 19.8757 25.1133 20.5203V24.4265C25.1133 25.071 25.6406 25.5984 26.2852 25.5984ZM18.8633 33.8015V29.8953C18.8633 29.2507 18.3359 28.7234 17.6914 28.7234H13.7852C13.1406 28.7234 12.6133 29.2507 12.6133 29.8953V33.8015C12.6133 34.446 13.1406 34.9734 13.7852 34.9734H17.6914C18.3359 34.9734 18.8633 34.446 18.8633 33.8015ZM26.2852 34.9734H30.1914C30.8359 34.9734 31.3633 34.446 31.3633 33.8015V29.8953C31.3633 29.2507 30.8359 28.7234 30.1914 28.7234H26.2852C25.6406 28.7234 25.1133 29.2507 25.1133 29.8953V33.8015C25.1133 34.446 25.6406 34.9734 26.2852 34.9734ZM43.8633 47.0828V50.5984H0.113281V47.0828C0.113281 46.4382 0.640625 45.9109 1.28516 45.9109H3.18945V2.94214C3.18945 1.64331 4.23438 0.598389 5.5332 0.598389H38.4434C39.7422 0.598389 40.7871 1.64331 40.7871 2.94214V45.9109H42.6914C43.3359 45.9109 43.8633 46.4382 43.8633 47.0828ZM7.87695 45.8132H18.8633V39.2703C18.8633 38.6257 19.3906 38.0984 20.0352 38.0984H23.9414C24.5859 38.0984 25.1133 38.6257 25.1133 39.2703V45.8132H36.0996V5.38354L7.92578 5.28589L7.87695 45.8132Z" fill="black"/>
</svg>
