<svg width="51" height="40" viewBox="0 0 51 40" fill="none" xmlns="http://www.w3.org/2000/svg">
<path d="M34.3148 39.0429H50.9814V28.9542C50.9814 27.379 50.535 25.8361 49.6939 24.5043L35.5411 2.09572C35.1655 1.50105 34.6455 1.01113 34.0295 0.671619C33.4135 0.332109 32.7216 0.154056 32.0182 0.154053H3.06478C1.91417 0.154053 0.981445 1.08678 0.981445 2.23739V3.62627C0.981445 6.311 3.15783 8.48738 5.84256 8.48738H25.8062C26.9211 8.48738 27.6774 9.62167 27.2485 10.6508L25.39 15.1113C25.179 15.6175 24.823 16.05 24.3667 16.3542C23.9104 16.6584 23.3743 16.8207 22.8259 16.8207H12.0926C9.02433 16.8207 6.537 19.308 6.537 22.3763V23.0707C6.537 24.2213 7.46973 25.154 8.62033 25.154H21.416C22.2057 25.154 22.9792 25.3785 23.6462 25.8012L33.3465 31.948C33.6432 32.1359 33.8875 32.3958 34.0567 32.7035C34.226 33.0112 34.3148 33.3566 34.3148 33.7078V39.0429Z" fill="black"/>
</svg>
