<svg width="51" height="39" viewBox="0 0 51 39" fill="none" xmlns="http://www.w3.org/2000/svg">
<path d="M47.8301 7.09839H44.7051V2.41089C44.7051 1.54761 44.0059 0.848389 43.1426 0.848389H33.7676C32.9043 0.848389 32.2051 1.54761 32.2051 2.41089V7.09839H19.7051V2.41089C19.7051 1.54761 19.0059 0.848389 18.1426 0.848389H8.76758C7.9043 0.848389 7.20508 1.54761 7.20508 2.41089V7.09839H4.08008C2.35449 7.09839 0.955078 8.4978 0.955078 10.2234V35.2234C0.955078 36.949 2.35449 38.3484 4.08008 38.3484H47.8301C49.5557 38.3484 50.9551 36.949 50.9551 35.2234V10.2234C50.9551 8.4978 49.5557 7.09839 47.8301 7.09839ZM19.7051 20.3796C19.7051 20.8113 19.3555 21.1609 18.9238 21.1609H7.98633C7.55469 21.1609 7.20508 20.8113 7.20508 20.3796V18.8171C7.20508 18.3855 7.55469 18.0359 7.98633 18.0359H18.9238C19.3555 18.0359 19.7051 18.3855 19.7051 18.8171V20.3796ZM44.7051 20.3796C44.7051 20.8113 44.3555 21.1609 43.9238 21.1609H40.0176V25.0671C40.0176 25.4988 39.668 25.8484 39.2363 25.8484H37.6738C37.2422 25.8484 36.8926 25.4988 36.8926 25.0671V21.1609H32.9863C32.5547 21.1609 32.2051 20.8113 32.2051 20.3796V18.8171C32.2051 18.3855 32.5547 18.0359 32.9863 18.0359H36.8926V14.1296C36.8926 13.698 37.2422 13.3484 37.6738 13.3484H39.2363C39.668 13.3484 40.0176 13.698 40.0176 14.1296V18.0359H43.9238C44.3555 18.0359 44.7051 18.3855 44.7051 18.8171V20.3796Z" fill="black"/>
</svg>
